{"title":"John Ford - Young Mr. Lincoln [1939]","uid":5201453,"size":1297686304,"categoryP":"video","categoryS":"movies","magnet":"?xt=urn:btih:2504cc489ac2bd44a2d825d1f0928b09a274df4f&amp;dn=John+Ford+-+Young+Mr.+Lincoln+%5B1939%5D&amp;tr=udp%3A%2F%2Ftracker.openbittorrent.com%3A80&amp;tr=udp%3A%2F%2Fopen.demonii.com%3A1337&amp;tr=udp%3A%2F%2Ftracker.coppersurfer.tk%3A6969&amp;tr=udp%3A%2F%2Fexodus.desync.com%3A6969","seeders":5,"leechers":0,"uploader":"mfccorrea","files":4,"time":1260147044,"description":"John Ford's fine direction distinguishes this highly fictionalized account of the early life of Abraham Lincoln. The film shows Lincoln (Henry Fonda) as he rises from a country boy born in a log cabin to a lawyer in Springfield, Illinois defending two young men unjustly accused of murder. The film, produced by Darryl F. Zanuck, received an Academy Award nomination for &quot;Best Original Screenplay&quot; for its screenwriter Lamar Trotti. Henry Fonda perhaps the most American of actors, is at his best playing Lincoln as the quintessential, compassionate American hero. \n\n   General\n      Complete name : Young Mr. Lincoln.avi\n      Format : AVI\n      Format/Info : Audio Video Interleave\n      File size : 1.21 GiB\n      Duration : 1h 40mn\n      Overall bit rate : 1 726 Kbps\n      Writing application : FairUse Wizard - http://fairusewizard.com\n      Writing library : The best and REALLY easy backup tool\n   Video #0\n      ID : 0\n      Format : MPEG-4 Visual\n      Format profile : AdvancedSimple@L5\n      Format settings, BVOP : Yes\n      Format settings, QPel : No\n      Format settings, GMC : No warppoints\n      Format settings, Matrix : Default (MPEG)\n      Muxing mode : Packed bitstream\n      Codec ID : XVID\n      Codec ID/Hint : XviD\n      Duration : 1h 40mn\n      Bit rate : 1 525 Kbps\n      Width : 640 pixels\n      Height : 464 pixels\n      Display aspect ratio : 1.379\n      Frame rate : 23.976 fps\n      Resolution : 24 bits\n      Colorimetry : 4:2:0\n      Scan type : Progressive\n      Bits/(Pixel*Frame) : 0.214\n      Stream size : 1.07 GiB (88%)\n      Writing library : XviD 1.2.0.dev47 (UTC 2006-11-01)\n   Audio #1\n      ID : 1\n      Format : AC-3\n      Format/Info : Audio Coding 3\n      Codec ID : 2000\n      Duration : 1h 40mn\n      Bit rate mode : Constant\n      Bit rate : 192 Kbps\n      Channel(s) : 1 channel\n      Channel positions : C\n      Sampling rate : 48.0 KHz\n      Stream size : 138 MiB (11%)\n      Alignment : Split accross interleaves\n      Interleave, duration : 42 ms (1.00 video frame)\n      Interleave, preload duration : 500 ms\n\nEnglish audio; English, Spanish and Portuguese subtitles\n\nCriterion Collection rip\n\nJohn Ford - Young Mr. Lincoln [1939]\n\nIMDB: tt0032155","torrent":{"xt":"urn:btih:2504cc489ac2bd44a2d825d1f0928b09a274df4f","amp;dn":"John+Ford+-+Young+Mr.+Lincoln+%5B1939%5D","amp;tr":["udp%3A%2F%2Ftracker.openbittorrent.com%3A80","udp%3A%2F%2Fopen.demonii.com%3A1337","udp%3A%2F%2Ftracker.coppersurfer.tk%3A6969","udp%3A%2F%2Fexodus.desync.com%3A6969"],"infoHash":"2504cc489ac2bd44a2d825d1f0928b09a274df4f","infoHashBuffer":{"type":"Buffer","data":[37,4,204,72,154,194,189,68,162,216,37,209,240,146,139,9,162,116,223,79]},"announce":[],"urlList":[]}}